<svg width="55" height="48" viewBox="0 0 55 48" fill="none" xmlns="http://www.w3.org/2000/svg">
<g clip-path="url(#clip0_28_1468)">
<path d="M54.9957 19.5165C55.0015 19.4748 55.0015 19.4326 54.9957 19.3909C55.0011 19.3569 55.0011 19.3223 54.9957 19.2882L54.5883 16.3556C54.5295 16.0047 54.3723 15.6768 54.1344 15.4085L54.0645 15.3286L53.9365 15.2031L46.8829 9.24648L47.0808 9.44048C46.9189 9.2506 46.7157 9.09872 46.4861 8.99602C46.2565 8.89333 46.0062 8.84244 45.7539 8.8471H43.6122C43.2639 8.84034 42.9236 8.94889 42.6461 9.1552C42.3547 8.95013 42.0038 8.84213 41.6451 8.8471H39.5034C39.2225 8.84263 38.9454 8.91098 38.7001 9.04523C38.4549 9.17948 38.2501 9.37488 38.1067 9.61164C37.8855 9.94979 37.8023 10.3572 37.8738 10.7527L38.1416 12.6013C37.9642 12.5028 37.7635 12.4516 37.5596 12.453H27.1887C26.8166 12.4553 26.4531 12.5622 26.1411 12.7611C25.8395 12.9462 25.5973 13.2113 25.4428 13.5256L24.6396 12.8524C24.3235 12.5656 23.9063 12.4102 23.4757 12.4188H7.20353C6.83012 12.4254 6.46501 12.5277 6.14436 12.7155C5.70569 12.9672 5.38421 13.3764 5.24809 13.8566L0.0801167 30.802C-0.0164452 31.0812 -0.0259442 31.3824 0.0528362 31.6669C0.131617 31.9514 0.295109 32.2065 0.522426 32.3996C0.581658 32.4488 0.643851 32.4945 0.708664 32.5365C0.708664 32.5365 0.603891 32.468 0.545692 32.411L7.59931 38.379C7.89769 38.6483 8.28781 38.7988 8.69336 38.8011H25.0936C25.4681 38.7916 25.8335 38.6853 26.1528 38.493C26.3334 38.3963 26.495 38.2688 26.63 38.1165L26.6882 38.0366L26.7813 37.9225L26.8512 37.797L27.6194 38.4474C27.9135 38.706 28.2951 38.8483 28.6902 38.8468H45.1253C45.4994 38.8346 45.8641 38.7285 46.1845 38.5387C46.361 38.436 46.5217 38.3092 46.6618 38.1621L46.7199 38.0823L46.813 37.9682C46.8625 37.896 46.9055 37.8196 46.941 37.7399C46.9791 37.6707 47.0103 37.5981 47.0342 37.5231L51.7482 22.0497V21.9128C51.754 21.8597 51.754 21.8061 51.7482 21.753V21.6504C51.7539 21.6163 51.7539 21.5817 51.7482 21.5476C51.7535 21.4755 51.7535 21.403 51.7482 21.3308H53.2614C53.393 21.3426 53.5255 21.3426 53.6571 21.3308H53.7619C53.8471 21.3059 53.9291 21.2714 54.0063 21.2281H54.1227L54.3322 21.0684L54.4253 20.9999L54.5883 20.7945V20.7261L54.7047 20.532C54.6982 20.4943 54.6982 20.4557 54.7047 20.418C54.6985 20.3994 54.6985 20.3794 54.7047 20.3609C54.7294 20.294 54.7489 20.2253 54.7629 20.1555C54.7575 20.133 54.7575 20.1095 54.7629 20.087C54.7572 20.053 54.7572 20.0183 54.7629 19.9843C54.7629 19.9843 54.9957 19.5393 54.9957 19.5165Z" fill="black"/>
<path d="M23.9527 13.7196C24.0145 13.7744 24.0576 13.8465 24.0764 13.926C24.0952 14.0056 24.0885 14.0889 24.0575 14.1647L18.9012 31.0987C18.8362 31.2836 18.7034 31.4382 18.5287 31.5324C18.3865 31.6256 18.222 31.6806 18.0514 31.6921H1.66292C1.52296 31.6855 1.39036 31.6287 1.29045 31.5324C1.23101 31.4784 1.18929 31.4084 1.17063 31.3312C1.15197 31.254 1.15722 31.173 1.18569 31.0987L6.35367 14.1647C6.41322 13.9775 6.54188 13.8188 6.71449 13.7196C6.859 13.6331 7.02275 13.5822 7.19172 13.5713H23.5802C23.7191 13.5726 23.8522 13.6257 23.9527 13.7196ZM15.3976 27.6868L18.4821 17.5766H9.84557L6.77268 27.6868H15.3976ZM39.5963 13.8908C39.6522 13.9545 39.7221 14.005 39.8007 14.0386C39.8793 14.0722 39.9646 14.088 40.0503 14.0848H42.1803C42.2614 14.0856 42.3413 14.0661 42.4127 14.0281C42.4839 13.9902 42.5441 13.9351 42.5877 13.868C42.6255 13.8156 42.6522 13.7562 42.6662 13.6935C42.6802 13.6308 42.6812 13.566 42.6691 13.5028L42.2501 10.4903C42.2102 10.3509 42.1386 10.2221 42.0407 10.1137C41.9847 10.05 41.9148 9.99952 41.8362 9.96594C41.7576 9.93235 41.6723 9.91657 41.5867 9.91976H39.4566C39.3755 9.91899 39.2955 9.93849 39.2243 9.97642C39.153 10.0144 39.0927 10.0695 39.0493 10.1366C38.9678 10.2963 38.9329 10.399 38.9678 10.4903L39.3984 13.5028C39.4205 13.6495 39.4899 13.7854 39.5963 13.8908ZM46.3589 10.4675C46.319 10.3281 46.2473 10.1993 46.1494 10.0909C46.0958 10.0275 46.028 9.97695 45.9513 9.9433C45.8746 9.90966 45.791 9.89379 45.7071 9.89694H43.5654C43.4856 9.89471 43.4067 9.91368 43.3371 9.95185C43.2674 9.99002 43.2096 10.046 43.1697 10.1137C43.0922 10.215 43.0587 10.3421 43.0766 10.4675L43.5072 13.48C43.5342 13.6251 43.6028 13.7597 43.7051 13.868C43.762 13.9304 43.8321 13.9801 43.9104 14.0136C43.9888 14.0471 44.0735 14.0636 44.159 14.062H46.3007C46.3803 14.063 46.4587 14.0435 46.5281 14.0055C46.5976 13.9674 46.6557 13.9121 46.6965 13.8452C46.737 13.7941 46.7652 13.7348 46.7794 13.6716C46.7935 13.6084 46.793 13.543 46.7779 13.48L46.3589 10.4675ZM37.7223 15.0319L37.5128 13.5485H27.1885C27.0264 13.5572 26.8696 13.6085 26.7345 13.6968C26.6488 13.7427 26.5742 13.8062 26.5159 13.883C26.4577 13.9598 26.4171 14.0481 26.3971 14.1419L25.5357 16.9718C25.5013 17.0425 25.4896 17.1219 25.502 17.1993C25.5145 17.2767 25.5506 17.3485 25.6055 17.4054C25.7037 17.4959 25.8318 17.5486 25.9664 17.5538H38.5139L35.4294 27.664H22.9168C22.7554 27.6676 22.5983 27.715 22.4629 27.8009C22.2983 27.9034 22.178 28.0619 22.1253 28.2459L21.2523 31.0759C21.2238 31.1485 21.2164 31.2274 21.2307 31.3039C21.2452 31.3805 21.2808 31.4516 21.3338 31.5095C21.4289 31.606 21.558 31.6631 21.6946 31.6692H38.1297C38.2997 31.6549 38.4635 31.6001 38.6069 31.5095C38.7788 31.4148 38.9077 31.26 38.9678 31.0759L43.6934 15.6025H38.3741C38.2897 15.6041 38.2059 15.5887 38.1279 15.5573C38.0498 15.5259 37.9791 15.4791 37.9202 15.4199C37.824 15.3164 37.7559 15.1908 37.7223 15.0547V15.0319Z" fill="white"/>
</g>
<defs>
<clipPath id="clip0_28_1468">
<rect width="55" height="30" fill="white" transform="translate(0 8.8468)"/>
</clipPath>
</defs>
</svg>
